<svg width="22" height="22" viewBox="0 0 22 22" fill="none" xmlns="http://www.w3.org/2000/svg">
<path d="M8.83203 15.8608C8.69531 15.8608 8.58545 15.8218 8.50244 15.7437C8.41943 15.6655 8.37549 15.5605 8.37061 15.4287L8.15088 7.59912C8.146 7.47217 8.18506 7.36963 8.26807 7.2915C8.35596 7.2085 8.46826 7.16699 8.60498 7.16699C8.73682 7.16699 8.84424 7.20605 8.92725 7.28418C9.01514 7.3623 9.05908 7.46484 9.05908 7.5918L9.28613 15.4287C9.28613 15.5557 9.24463 15.6606 9.16162 15.7437C9.07861 15.8218 8.96875 15.8608 8.83203 15.8608ZM11 15.8608C10.8633 15.8608 10.751 15.8218 10.6631 15.7437C10.5752 15.6606 10.5312 15.5557 10.5312 15.4287V7.59912C10.5312 7.47217 10.5752 7.36963 10.6631 7.2915C10.751 7.2085 10.8633 7.16699 11 7.16699C11.1416 7.16699 11.2563 7.2085 11.3442 7.2915C11.4321 7.36963 11.4761 7.47217 11.4761 7.59912V15.4287C11.4761 15.5557 11.4321 15.6606 11.3442 15.7437C11.2563 15.8218 11.1416 15.8608 11 15.8608ZM13.1753 15.8608C13.0337 15.8608 12.9214 15.8218 12.8384 15.7437C12.7554 15.6606 12.7163 15.5557 12.7212 15.4287L12.9409 7.59912C12.9458 7.46729 12.9897 7.3623 13.0728 7.28418C13.1558 7.20605 13.2632 7.16699 13.395 7.16699C13.5366 7.16699 13.6489 7.2085 13.7319 7.2915C13.8149 7.36963 13.854 7.47217 13.8491 7.59912L13.6294 15.4287C13.6245 15.5605 13.5806 15.6655 13.4976 15.7437C13.4146 15.8218 13.3071 15.8608 13.1753 15.8608ZM7.78467 5.25537V3.61475C7.78467 3.0874 7.9458 2.67236 8.26807 2.36963C8.59521 2.06201 9.03955 1.9082 9.60107 1.9082H12.3843C12.9458 1.9082 13.3877 2.06201 13.71 2.36963C14.0371 2.67236 14.2007 3.0874 14.2007 3.61475V5.25537H13.0361V3.68799C13.0361 3.48291 12.9678 3.31689 12.8311 3.18994C12.6992 3.06299 12.5234 2.99951 12.3037 2.99951H9.68164C9.46191 2.99951 9.28369 3.06299 9.14697 3.18994C9.01514 3.31689 8.94922 3.48291 8.94922 3.68799V5.25537H7.78467ZM4.45947 5.84131C4.31299 5.84131 4.18359 5.7876 4.07129 5.68018C3.96387 5.56787 3.91016 5.43604 3.91016 5.28467C3.91016 5.13818 3.96387 5.01123 4.07129 4.90381C4.18359 4.7915 4.31299 4.73535 4.45947 4.73535H17.5479C17.6943 4.73535 17.8213 4.78906 17.9287 4.89648C18.0361 5.00391 18.0898 5.1333 18.0898 5.28467C18.0898 5.43604 18.0361 5.56787 17.9287 5.68018C17.8262 5.7876 17.6992 5.84131 17.5479 5.84131H4.45947ZM7.64551 18.2192C7.11816 18.2192 6.69092 18.063 6.36377 17.7505C6.0415 17.4429 5.86816 17.0254 5.84375 16.498L5.32373 5.70215H6.47363L6.99365 16.3662C7.00342 16.5811 7.0791 16.7593 7.2207 16.9009C7.3623 17.0425 7.53809 17.1133 7.74805 17.1133H14.2446C14.4595 17.1133 14.6377 17.0425 14.7793 16.9009C14.9209 16.7642 14.9966 16.5859 15.0063 16.3662L15.4971 5.70215H16.6763L16.1636 16.4907C16.1392 17.0181 15.9634 17.438 15.6362 17.7505C15.3091 18.063 14.8843 18.2192 14.3618 18.2192H7.64551Z" fill="#FF382B"/>
</svg>
