<svg width="22" height="22" viewBox="0 0 22 22" fill="none" xmlns="http://www.w3.org/2000/svg">
<path d="M16.2165 11.1243C16.2165 11.2654 16.1893 11.3956 16.1351 11.515C16.0808 11.6343 15.9995 11.7483 15.891 11.8568L9.55143 18.0579C9.3724 18.2424 9.14996 18.3346 8.88411 18.3346C8.7105 18.3346 8.55046 18.2912 8.40397 18.2044C8.25749 18.123 8.14084 18.0091 8.05404 17.8626C7.97266 17.7216 7.93197 17.5642 7.93197 17.3906C7.93197 17.1302 8.02962 16.8996 8.22493 16.6989L13.9378 11.1243L8.22493 5.5498C8.02962 5.34907 7.93197 5.1212 7.93197 4.86621C7.93197 4.68717 7.97266 4.52713 8.05404 4.38607C8.14084 4.24501 8.25749 4.13379 8.40397 4.05241C8.55046 3.9656 8.7105 3.9222 8.88411 3.9222C9.14996 3.9222 9.3724 4.01172 9.55143 4.19075L15.891 10.3919C15.9995 10.5004 16.0808 10.6144 16.1351 10.7337C16.1893 10.8531 16.2165 10.9833 16.2165 11.1243Z" fill="#A8A8A8"/>
</svg>
