<svg width="26" height="26" viewBox="0 0 26 26" fill="none" xmlns="http://www.w3.org/2000/svg">
<path d="M9.66007 23.0207V8.93734H5.14582C4.57119 8.93734 4.02009 9.16561 3.61376 9.57194C3.20743 9.97827 2.97916 10.5294 2.97916 11.104V20.854C2.97916 21.4286 3.20743 21.9797 3.61376 22.3861C4.02009 22.7924 4.57119 23.0207 5.14582 23.0207H9.66007ZM9.66007 23.0207H16.3399M9.66007 23.0207V5.14567C9.66007 4.57103 9.88835 4.01993 10.2947 3.61361C10.701 3.20728 11.2521 2.979 11.8267 2.979H14.1732C14.7479 2.979 15.299 3.20728 15.7053 3.61361C16.1116 4.01993 16.3399 4.57103 16.3399 5.14567V23.0207M16.3399 23.0207H20.8542C21.4288 23.0207 21.9799 22.7924 22.3862 22.3861C22.7926 21.9797 23.0208 21.4286 23.0208 20.854V15.4373C23.0208 14.8627 22.7926 14.3116 22.3862 13.9053C21.9799 13.4989 21.4288 13.2707 20.8542 13.2707H16.3399V23.0207Z" stroke="#A8A8A8" stroke-width="1.625" stroke-linecap="round" stroke-linejoin="round"/>
</svg>
