<svg width="26" height="26" viewBox="0 0 26 26" fill="none" xmlns="http://www.w3.org/2000/svg">
<path d="M13 9.43571C13 8.93778 12.9019 8.44473 12.7114 7.9847C12.5208 7.52468 12.2415 7.10669 11.8894 6.7546C11.5373 6.40251 11.1193 6.12322 10.6593 5.93267C10.1993 5.74212 9.70624 5.64404 9.20831 5.64404H5.14581C4.57117 5.64404 4.02007 5.87232 3.61374 6.27864C3.20741 6.68497 2.97914 7.23607 2.97914 7.81071V17.4784C2.97914 18.053 3.20741 18.6041 3.61374 19.0104C4.02007 19.4168 4.57117 19.645 5.14581 19.645H9.38922C10.2892 19.645 11.1669 19.9252 11.9004 20.4467L13 21.2278M13 9.43571V21.2278M13 9.43571C13 8.4301 13.3995 7.46567 14.1105 6.7546C14.8216 6.04352 15.786 5.64404 16.7916 5.64404H20.8541C21.4288 5.64404 21.9799 5.87232 22.3862 6.27864C22.7925 6.68497 23.0208 7.23607 23.0208 7.81071V17.4784C23.0208 18.053 22.7925 18.6041 22.3862 19.0104C21.9799 19.4168 21.4288 19.645 20.8541 19.645H16.6096C15.71 19.6452 14.8328 19.9254 14.0996 20.4467L13 21.2278" stroke="#A8A8A8" stroke-width="1.625" stroke-linecap="round" stroke-linejoin="round"/>
</svg>
