<svg width="22" height="22" viewBox="0 0 22 22" fill="none" xmlns="http://www.w3.org/2000/svg">
<path d="M5.78353 11.1243C5.78353 11.2654 5.81065 11.3956 5.86491 11.515C5.91916 11.6343 6.00054 11.7483 6.10905 11.8568L12.4486 18.0579C12.6276 18.2424 12.85 18.3346 13.1159 18.3346C13.2895 18.3346 13.4495 18.2912 13.596 18.2044C13.7425 18.123 13.8592 18.0091 13.946 17.8626C14.0273 17.7216 14.068 17.5642 14.068 17.3906C14.068 17.1302 13.9704 16.8996 13.7751 16.6989L8.06217 11.1243L13.7751 5.5498C13.9704 5.34907 14.068 5.1212 14.068 4.86621C14.068 4.68717 14.0273 4.52713 13.946 4.38607C13.8592 4.24501 13.7425 4.13379 13.596 4.05241C13.4495 3.9656 13.2895 3.9222 13.1159 3.9222C12.85 3.9222 12.6276 4.01172 12.4486 4.19075L6.10905 10.3919C6.00054 10.5004 5.91916 10.6144 5.86491 10.7337C5.81065 10.8531 5.78353 10.9833 5.78353 11.1243Z" fill="#A8A8A8"/>
</svg>
