<svg width="22" height="22" viewBox="0 0 22 22" fill="none" xmlns="http://www.w3.org/2000/svg">
<path d="M8.9714 15.2005L6.80577 17.3661V10.4224V3.47861C6.80577 3.06611 6.46202 2.68799 6.01515 2.68799C5.56827 2.68799 5.22452 3.03174 5.22452 3.47861V17.3661L3.0589 15.2005C2.74952 14.8911 2.26827 14.8911 1.9589 15.2005C1.64952 15.5099 1.64952 15.9911 1.9589 16.3005L5.22452 19.5661C5.43077 19.7724 5.70577 19.8755 6.01515 19.8755C6.29015 19.8755 6.56515 19.7724 6.80577 19.5661L10.0714 16.3005C10.3808 15.9911 10.3808 15.5099 10.0714 15.2005C9.76202 14.8911 9.28077 14.8911 8.9714 15.2005Z" fill="#A8A8A8"/>
<path d="M18.9714 7.36299L16.8058 5.19736V12.1411V19.0849C16.8058 19.4974 16.462 19.8755 16.0151 19.8755C15.5683 19.8755 15.2245 19.5317 15.2245 19.0849V5.19736L13.0589 7.36299C12.7495 7.67236 12.2683 7.67236 11.9589 7.36299C11.6495 7.05361 11.6495 6.57236 11.9589 6.26299L15.2245 2.99736C15.4308 2.79111 15.7058 2.68799 16.0151 2.68799C16.2901 2.68799 16.5651 2.79111 16.8058 2.99736L20.0714 6.26299C20.3808 6.57236 20.3808 7.05361 20.0714 7.36299C19.762 7.67236 19.2808 7.67236 18.9714 7.36299Z" fill="#A8A8A8"/>
</svg>
