<svg width="22" height="22" viewBox="0 0 22 22" fill="none" xmlns="http://www.w3.org/2000/svg">
<path d="M2.97913 8.47884H19.0208M6.74754 4.35384V2.52051M15.2267 4.35384V2.52051M15.8125 4.35384H6.18746C5.33656 4.35384 4.5205 4.69186 3.91883 5.29354C3.31715 5.89522 2.97913 6.71127 2.97913 7.56217V16.2705C2.97913 17.1214 3.31715 17.9375 3.91883 18.5391C4.5205 19.1408 5.33656 19.4788 6.18746 19.4788H15.8125C16.6634 19.4788 17.4794 19.1408 18.0811 18.5391C18.6828 17.9375 19.0208 17.1214 19.0208 16.2705V7.56217C19.0208 6.71127 18.6828 5.89522 18.0811 5.29354C17.4794 4.69186 16.6634 4.35384 15.8125 4.35384Z" stroke="#A8A8A8" stroke-width="1.375" stroke-linecap="round" stroke-linejoin="round"/>
</svg>
