<svg width="22" height="22" viewBox="0 0 22 22" fill="none" xmlns="http://www.w3.org/2000/svg">
<path d="M5.26188 11.5368C5.26188 11.6919 5.29172 11.8352 5.3514 11.9665C5.41108 12.0978 5.5006 12.2231 5.61995 12.3424L12.5934 19.1637C12.7904 19.3666 13.035 19.4681 13.3275 19.4681C13.5184 19.4681 13.6945 19.4204 13.8556 19.3249C14.0168 19.2354 14.1451 19.11 14.2406 18.9489C14.3301 18.7937 14.3748 18.6207 14.3748 18.4297C14.3748 18.1432 14.2674 17.8896 14.0526 17.6688L7.76839 11.5368L14.0526 5.40478C14.2674 5.18397 14.3748 4.93332 14.3748 4.65283C14.3748 4.45589 14.3301 4.27984 14.2406 4.12467C14.1451 3.96951 14.0168 3.84717 13.8556 3.75765C13.6945 3.66216 13.5184 3.61442 13.3275 3.61442C13.035 3.61442 12.7904 3.71289 12.5934 3.90983L5.61995 10.7311C5.5006 10.8505 5.41108 10.9758 5.3514 11.1071C5.29172 11.2384 5.26188 11.3816 5.26188 11.5368Z" fill="#A8A8A8"/>
</svg>
