<svg width="20" height="20" viewBox="0 0 20 20" fill="none" xmlns="http://www.w3.org/2000/svg">
<path d="M15.2165 10.1243C15.2165 10.2654 15.1893 10.3956 15.1351 10.515C15.0808 10.6343 14.9995 10.7483 14.891 10.8568L8.55143 17.0579C8.3724 17.2424 8.14996 17.3346 7.88411 17.3346C7.7105 17.3346 7.55046 17.2912 7.40397 17.2044C7.25749 17.123 7.14084 17.0091 7.05404 16.8626C6.97266 16.7216 6.93197 16.5642 6.93197 16.3906C6.93197 16.1302 7.02962 15.8996 7.22493 15.6989L12.9378 10.1243L7.22493 4.5498C7.02962 4.34907 6.93197 4.1212 6.93197 3.86621C6.93197 3.68717 6.97266 3.52713 7.05404 3.38607C7.14084 3.24501 7.25749 3.13379 7.40397 3.05241C7.55046 2.9656 7.7105 2.9222 7.88411 2.9222C8.14996 2.9222 8.3724 3.01172 8.55143 3.19075L14.891 9.39193C14.9995 9.50043 15.0808 9.61437 15.1351 9.73372C15.1893 9.85308 15.2165 9.98329 15.2165 10.1243Z" fill="#A8A8A8"/>
</svg>
